<svg xmlns="http://www.w3.org/2000/svg" version="1.1" xmlns:xlink="http://www.w3.org/1999/xlink" xmlns:svgjs="http://svgjs.dev/svgjs" width="500" height="500"><svg xmlns="http://www.w3.org/2000/svg" xmlns:xlink="http://www.w3.org/1999/xlink" width="500" zoomAndPan="magnify" viewBox="0 0 375 374.999991" height="500" preserveAspectRatio="xMidYMid meet" version="1.0"><defs><g></g></defs><g fill="#ffbd59" fill-opacity="1"><g transform="translate(18.802071, 275.724266)"><g><path d="M 57.59375 -21.125 C 65.269531 -21.125 71.347656 -23.328125 75.828125 -27.734375 C 80.304688 -32.140625 82.546875 -38.039062 82.546875 -45.4375 L 82.546875 -129.265625 L 27.734375 -129.265625 L 27.734375 -153.796875 L 109.21875 -153.796875 L 109.21875 -45.4375 C 109.21875 -38.039062 108.007812 -31.390625 105.59375 -25.484375 C 103.175781 -19.585938 99.726562 -14.578125 95.25 -10.453125 C 90.769531 -6.328125 85.363281 -3.160156 79.03125 -0.953125 C 72.707031 1.242188 65.5625 2.34375 57.59375 2.34375 C 50.34375 2.34375 43.691406 1.3125 37.640625 -0.75 C 31.597656 -2.8125 26.375 -5.757812 21.96875 -9.59375 C 17.5625 -13.4375 14.003906 -18.054688 11.296875 -23.453125 C 8.597656 -28.859375 6.96875 -34.976562 6.40625 -41.8125 L 33.28125 -41.8125 C 33.988281 -35.550781 36.507812 -30.535156 40.84375 -26.765625 C 45.1875 -23.003906 50.769531 -21.125 57.59375 -21.125 Z M 57.59375 -21.125 "></path></g></g></g><g fill="#ffbd59" fill-opacity="1"><g transform="translate(132.927017, 275.724266)"><g><path d="M 16 -153.578125 L 66.34375 -153.578125 C 74.019531 -153.578125 81.019531 -152.472656 87.34375 -150.265625 C 93.675781 -148.066406 99.082031 -144.976562 103.5625 -141 C 108.039062 -137.019531 111.488281 -132.1875 113.90625 -126.5 C 116.320312 -120.8125 117.53125 -114.484375 117.53125 -107.515625 C 117.53125 -97.273438 114.96875 -88.523438 109.84375 -81.265625 C 104.726562 -74.015625 97.691406 -68.753906 88.734375 -65.484375 L 119.671875 0 L 90.234375 0 L 62.5 -61.4375 L 42.65625 -61.4375 L 42.65625 0 L 16 0 Z M 42.65625 -82.984375 L 66.34375 -82.984375 C 73.738281 -82.984375 79.601562 -85.113281 83.9375 -89.375 C 88.269531 -93.644531 90.4375 -99.40625 90.4375 -106.65625 C 90.4375 -114.050781 88.234375 -119.953125 83.828125 -124.359375 C 79.421875 -128.765625 73.59375 -130.96875 66.34375 -130.96875 L 42.65625 -130.96875 Z M 42.65625 -82.984375 "></path></g></g></g><g fill="#ffbd59" fill-opacity="1"><g transform="translate(247.051963, 275.724266)"><g><path d="M 64 2.140625 C 56.457031 2.140625 49.519531 1.144531 43.1875 -0.84375 C 36.863281 -2.84375 31.425781 -5.722656 26.875 -9.484375 C 22.320312 -13.253906 18.726562 -17.769531 16.09375 -23.03125 C 13.46875 -28.300781 12.015625 -34.207031 11.734375 -40.75 L 39.03125 -40.75 C 39.320312 -34.625 41.773438 -29.820312 46.390625 -26.34375 C 51.015625 -22.863281 57.097656 -21.125 64.640625 -21.125 C 72.453125 -21.125 78.523438 -22.898438 82.859375 -26.453125 C 87.203125 -30.003906 89.375 -34.769531 89.375 -40.75 C 89.375 -46.007812 87.738281 -50.554688 84.46875 -54.390625 C 81.195312 -58.234375 76.578125 -61.078125 70.609375 -62.921875 L 54.390625 -67.625 C 27.941406 -74.875 14.71875 -90.085938 14.71875 -113.265625 C 14.71875 -119.671875 15.890625 -125.503906 18.234375 -130.765625 C 20.585938 -136.023438 23.894531 -140.535156 28.15625 -144.296875 C 32.425781 -148.066406 37.617188 -150.945312 43.734375 -152.9375 C 49.847656 -154.9375 56.742188 -155.9375 64.421875 -155.9375 C 78.921875 -155.9375 90.613281 -152.203125 99.5 -144.734375 C 108.394531 -137.265625 113.195312 -126.988281 113.90625 -113.90625 L 86.8125 -113.90625 C 86.53125 -119.738281 84.253906 -124.289062 79.984375 -127.5625 C 75.722656 -130.832031 70.320312 -132.46875 63.78125 -132.46875 C 56.8125 -132.46875 51.332031 -130.832031 47.34375 -127.5625 C 43.363281 -124.289062 41.375 -119.953125 41.375 -114.546875 C 41.375 -104.304688 47.5625 -97.410156 59.9375 -93.859375 L 77 -89.171875 C 89.800781 -85.609375 99.539062 -79.8125 106.21875 -71.78125 C 112.90625 -63.75 116.25 -53.828125 116.25 -42.015625 C 116.25 -35.335938 115.003906 -29.296875 112.515625 -23.890625 C 110.035156 -18.484375 106.519531 -13.859375 101.96875 -10.015625 C 97.414062 -6.179688 91.9375 -3.195312 85.53125 -1.0625 C 79.132812 1.070312 71.957031 2.140625 64 2.140625 Z M 64 2.140625 "></path></g></g></g><path stroke-linecap="butt" transform="matrix(0.799965, 0, 0, 0.799965, 9.374378, 38.30646)" fill="none" stroke-linejoin="miter" d="M 72.000971 258.568568 C 81.596113 258.568568 89.189216 255.834074 94.790045 250.365087 C 100.385991 244.852153 103.188846 237.473903 103.188846 228.230338 L 103.188846 123.416222 L 34.636069 123.416222 L 34.636069 92.75083 L 136.52037 92.75083 L 136.52037 228.230338 C 136.52037 237.473903 135.001749 245.78481 131.964508 253.16306 C 128.966331 260.54131 124.66927 266.815996 119.073324 271.977352 C 113.472496 277.099645 106.704624 281.050012 98.759943 283.828452 C 90.85921 286.562946 81.942808 287.930193 72.000971 287.930193 C 62.933194 287.930193 54.622287 286.65084 47.068249 284.087253 C 39.519093 281.484601 32.985607 277.793034 27.472672 273.02232 C 21.959738 268.202775 17.511303 262.43104 14.127367 255.702233 C 10.743431 248.934361 8.702327 241.272896 8.008938 232.72272 L 41.599262 232.72272 C 42.46844 240.535559 45.613107 246.805362 51.038147 251.537013 C 56.463187 256.224716 63.455678 258.568568 72.000971 258.568568 Z M 162.649433 93.014513 L 225.601382 93.014513 C 235.196524 93.014513 243.942021 94.401292 251.837871 97.179733 C 259.782551 99.914227 266.550423 103.776699 272.151252 108.76715 C 277.752081 113.713653 282.049142 119.749071 285.042436 126.863638 C 288.079677 133.983087 289.598297 141.903352 289.598297 150.629317 C 289.598297 163.432606 286.385267 174.370581 279.964091 183.438357 C 273.581978 192.467068 264.792534 199.044502 253.59576 203.165775 L 292.269312 285.000378 L 255.48549 285.000378 L 220.78672 208.180641 L 195.980956 208.180641 L 195.980956 285.000378 L 162.649433 285.000378 Z M 195.980956 181.289826 L 225.601382 181.289826 C 234.849829 181.289826 242.184132 178.623695 247.609172 173.281666 C 253.034212 167.944521 255.74429 160.74206 255.74429 151.669401 C 255.74429 142.425836 252.990265 135.047586 247.47733 129.534652 C 241.964396 124.021717 234.674041 121.267692 225.601382 121.267692 L 195.980956 121.267692 Z M 365.334004 287.671392 C 355.919533 287.671392 347.237516 286.431104 339.292835 283.960294 C 331.396985 281.440653 324.604698 277.836982 318.915975 273.149278 C 313.232135 268.422511 308.739752 262.777735 305.443711 256.224716 C 302.142787 249.62775 300.321419 242.249501 299.974724 234.089967 L 334.151011 234.089967 C 334.497705 241.727017 337.559362 247.718488 343.331096 252.059496 C 349.102831 256.400505 356.700817 258.568568 366.115287 258.568568 C 375.881336 258.568568 383.479322 256.356558 388.904362 251.927655 C 394.329402 247.498752 397.03948 241.556111 397.03948 234.089967 C 397.03948 227.493001 395.003259 221.809161 390.921051 217.033564 C 386.843725 212.214019 381.067108 208.654294 373.605847 206.354389 L 353.292466 200.49476 C 320.26369 191.426984 303.749302 172.392956 303.749302 143.402441 C 303.749302 135.413813 305.204443 128.147873 308.109842 121.594854 C 311.064072 114.997889 315.204877 109.353113 320.546905 104.665409 C 325.884051 99.933759 332.37359 96.33497 340.01064 93.859277 C 347.64769 91.339636 356.266228 90.084699 365.856487 90.084699 C 383.996922 90.084699 398.626463 94.747987 409.735343 104.079446 C 420.844223 113.410906 426.835694 126.258143 427.704872 142.621157 L 393.850865 142.621157 C 393.504171 135.330802 390.66225 129.642078 385.320222 125.564753 C 379.983076 121.438598 373.234737 119.377961 365.075203 119.377961 C 356.349239 119.377961 349.493473 121.438598 344.503022 125.564753 C 339.556519 129.642078 337.080825 135.047586 337.080825 141.776394 C 337.080825 154.579683 344.80577 163.21287 360.255658 167.68572 L 381.609123 173.545349 C 397.581496 177.969369 409.735343 185.22066 418.070666 195.289457 C 426.445052 205.314305 430.634687 217.707421 430.634687 232.46392 C 430.634687 240.838307 429.072119 248.411877 425.946984 255.184632 C 422.865795 261.908556 418.48084 267.680291 412.796999 272.499836 C 407.108276 277.275434 400.25251 281.006064 392.224818 283.696611 C 384.236191 286.34321 375.275841 287.671392 365.334004 287.671392 Z M 365.334004 287.671392 " stroke="#004aad" stroke-width="10.000012" stroke-opacity="1" stroke-miterlimit="4"></path></svg><style>@media (prefers-color-scheme: light) { :root { filter: none; } }
@media (prefers-color-scheme: dark) { :root { filter: none; } }
</style></svg>